<?xml version="1.0" standalone="no"?><!-- Generator: Gravit.io --><svg xmlns="http://www.w3.org/2000/svg" xmlns:xlink="http://www.w3.org/1999/xlink" style="isolation:isolate" viewBox="-3 7 406 83.414" width="406" height="83.414"><path d=" M 0 77.342 C 0 77.342 8.78 80.587 8.78 80.587 C 24.029 89.645 46.418 87.078 65.366 87.078 C 91.821 77.649 108.976 59.735 123.902 47.322 C 143.788 30.784 166.874 10 191.22 10 C 217.443 10 228.293 28.79 228.293 46.511 C 228.293 61.352 226.331 71.056 211.707 74.097 C 201.205 76.28 179.512 76.858 179.512 62.738 C 179.512 58.681 179.512 50.567 179.512 50.567 C 179.512 29.551 210.952 26.227 230.244 26.227 C 246.784 26.227 268.339 36.212 279.024 40.02 C 281.301 40.831 283.793 41.311 285.854 42.454 C 308.532 55.027 333.01 60.979 352.195 53.001 C 377.282 42.57 395.386 38.11 400 18.925" fill="none" vector-effect="non-scaling-stroke" stroke-width="2" stroke="rgb(255,255,255)" stroke-linejoin="miter" stroke-linecap="square" stroke-miterlimit="3"/></svg>